<svg xmlns="http://www.w3.org/2000/svg" viewBox="0 0 1034.25 886.25"><defs><style>.cls-1{fill:none;}.cls-2{fill:#fff;}</style></defs><g id="Calque_2" data-name="Calque 2"><g id="Calque_1-2" data-name="Calque 1"><rect class="cls-1" width="1034.25" height="886.25"/><path class="cls-2" d="M279.9,691.22H196.11v-3.61q0-151.9,0-303.81c0-26.56-.58-53.12-.7-79.68-.09-19.73.09-39.47.23-59.2.11-15.65.33-31.3.51-47,0-.82,0-1.65,0-2.76,1.13,0,2.09-.13,3.06-.13h54q50.11,0,100.22,0a9.79,9.79,0,0,1,5.17,1.41q78.15,45.48,156.29,90.93a4.4,4.4,0,0,0,5.17,0q77.79-45.35,155.62-90.6A11.9,11.9,0,0,1,682,195q76.47.06,152.95,0h3a5.11,5.11,0,0,1-2.23,1.8q-45,26.73-90,53.45-113.11,67-226.27,134a5.2,5.2,0,0,0-.64.39c-1.34,1.13-2.53.92-4,0q-40.46-24.33-81-48.55-75.54-45-151.17-89.78c-.77-.45-1.57-.85-2.74-1.48,0,1.22-.07,2.09-.08,3q-.06,18-.11,36c-.07,23.15-.22,46.3-.2,69.45q.1,112.8.3,225.59.07,54.72,0,109.43Z"/><path class="cls-2" d="M838.9,690.85H755.12c0-1.06-.1-2-.1-3q0-22.74,0-45.47,0-81.21,0-162.4,0-70.58,0-141.16a16.67,16.67,0,0,0,0-2,2.87,2.87,0,0,1,1.77-3.16c4.15-2.3,8.22-4.74,12.32-7.12l66.95-38.89c.71-.42,1.44-.8,2.54-1.4.06,1.12.15,2,.15,2.84,0,8.66.07,17.32.07,26q.06,49.1.08,98.19,0,53.72,0,107.43,0,54,.05,107.93,0,29.36,0,58.71Z"/><path class="cls-2" d="M678.73,379.94v2.94q0,45.58,0,91.17a4.1,4.1,0,0,1-2.33,4.11q-78.44,45.44-156.77,91a3.86,3.86,0,0,1-4.51,0q-78.46-45.62-157-91.1a3.52,3.52,0,0,1-2.13-3.47q.11-46.2.05-92.42V380c1,.53,1.8.89,2.53,1.31Q388.8,399,419,416.56q48.48,28.15,97,56.24c1.4.81,2.29.34,3.4-.3q21.69-12.6,43.41-25.18l113.3-65.95C676.8,381,677.53,380.59,678.73,379.94Z"/></g></g></svg>